<svg width="240" height="240" viewBox="0 0 240 240" fill="none" xmlns="http://www.w3.org/2000/svg" role="img" aria-label="Mascotte chat Songi Songi Mabé (fond sombre)">
  <!-- Mascotte : chat crème sur fond vert profond. -->
  <rect width="240" height="240" rx="48" fill="#0B0B0B"/>
  <g>
    <path d="M70 78 L60 34 L104 64 Z" fill="#F8F3EA"/>
    <path d="M170 78 L180 34 L136 64 Z" fill="#F8F3EA"/>
    <path d="M73 72 L67 48 L96 66 Z" fill="#0F3D32"/>
    <path d="M167 72 L173 48 L144 66 Z" fill="#0F3D32"/>
    <ellipse cx="120" cy="132" rx="64" ry="58" fill="#F8F3EA"/>
    <ellipse cx="98" cy="124" rx="13" ry="17" fill="#0F3D32"/>
    <ellipse cx="142" cy="124" rx="13" ry="17" fill="#0F3D32"/>
    <ellipse cx="98" cy="126" rx="4.5" ry="11" fill="#0B0B0B"/>
    <ellipse cx="142" cy="126" rx="4.5" ry="11" fill="#0B0B0B"/>
    <circle cx="94" cy="118" r="2.4" fill="#FFFDF8"/>
    <circle cx="138" cy="118" r="2.4" fill="#FFFDF8"/>
    <path d="M120 144 l7 7 -7 5 -7 -5 Z" fill="#C76A2D"/>
    <g stroke="#0B0B0B" stroke-width="2.4" stroke-linecap="round">
      <path d="M86 150 L40 142"/>
      <path d="M86 156 L42 158"/>
      <path d="M154 150 L200 142"/>
      <path d="M154 156 L198 158"/>
    </g>
  </g>
</svg>
