<svg width="1200" height="630" viewBox="0 0 1200 630" fill="none" xmlns="http://www.w3.org/2000/svg" role="img" aria-label="Songi Songi Mabé — Téléchat vocal né au Congo">
  <rect width="1200" height="630" fill="#0B0B0B"/>
  <rect width="1200" height="630" fill="url(#g)"/>
  <defs>
    <radialGradient id="g" cx="78%" cy="30%" r="70%">
      <stop offset="0%" stop-color="#0F3D32" stop-opacity="0.55"/>
      <stop offset="100%" stop-color="#0B0B0B" stop-opacity="0"/>
    </radialGradient>
  </defs>
  <!-- Mascotte -->
  <g transform="translate(840,150) scale(1.7)">
    <path d="M40 40 L30 4 L70 30 Z" fill="#F8F3EA"/>
    <path d="M120 40 L130 4 L90 30 Z" fill="#F8F3EA"/>
    <ellipse cx="80" cy="78" rx="58" ry="52" fill="#F8F3EA"/>
    <ellipse cx="60" cy="70" rx="11" ry="15" fill="#0F3D32"/>
    <ellipse cx="100" cy="70" rx="11" ry="15" fill="#0F3D32"/>
    <ellipse cx="60" cy="72" rx="4" ry="10" fill="#0B0B0B"/>
    <ellipse cx="100" cy="72" rx="4" ry="10" fill="#0B0B0B"/>
    <path d="M80 90 l7 7 -7 5 -7 -5 Z" fill="#C76A2D"/>
  </g>
  <!-- Texte -->
  <text x="90" y="250" font-family="Poppins, Inter, sans-serif" font-size="68" font-weight="700" fill="#FFFDF8">Songi Songi Mabé</text>
  <text x="90" y="320" font-family="Poppins, Inter, sans-serif" font-size="34" font-weight="500" fill="#3ad29f">La voix d'abord. Le contact après.</text>
  <text x="90" y="400" font-family="Inter, sans-serif" font-size="26" font-weight="400" fill="#9a948b">Téléchat vocal né au Congo · Appels anonymes · Numéro protégé</text>
  <g transform="translate(90,450)">
    <rect width="250" height="56" rx="28" fill="#0F3D32"/>
    <text x="125" y="36" text-anchor="middle" font-family="Poppins, Inter, sans-serif" font-size="22" font-weight="600" fill="#FFFDF8">Rejoindre la bêta</text>
  </g>
</svg>
