<svg xmlns="http://www.w3.org/2000/svg" height="1024" preserveAspectRatio="none" style="display: block;" version="1.1" viewBox="0 0 2048 2048" width="1024">
<defs>
	<linearGradient gradientUnits="userSpaceOnUse" id="Gradient1" x1="924.661" x2="662.327" y1="807.376" y2="1547.04">
		<stop class="stop0" offset="0" stop-color="rgb(148,64,48)" stop-opacity="1"></stop>
		<stop class="stop1" offset="1" stop-color="rgb(174,89,67)" stop-opacity="1"></stop>
	</linearGradient>
</defs>
<path d="M 0 0 L 2048 0 L 2048 2048 L 0 2048 L 0 0 z" fill="rgb(36,48,47)" transform="translate(0,0)"></path>
<path d="M 795.163 722.808 C 796.064 673.514 824.073 613.376 859.385 579.18 C 887.425 551.902 922.458 532.902 960.615 524.278 C 988.504 518.089 1023.94 519.469 1053.12 519.454 L 1152.01 519.477 L 1333.38 519.387 C 1368.5 519.324 1404.32 519.658 1438.88 519.458 C 1540.88 518.866 1631.21 602.758 1634.47 705.367 C 1637.01 785.288 1634.06 868.524 1634.99 948.809 C 1635.61 1001.86 1610.19 1056.17 1571.46 1091.81 C 1531.14 1128.8 1477.71 1149.81 1423.01 1147.78 C 1421.55 1147.73 1420.35 1147.5 1418.93 1147.25 C 1419.39 1159.59 1419.33 1157.92 1412.06 1167.41 C 1412.1 1171.04 1411.97 1175.75 1412.6 1179.24 C 1413.1 1175.7 1412.95 1173.72 1415.4 1171.19 L 1417.77 1170.25 C 1422.6 1174.77 1419.13 1190.62 1420.55 1198.11 L 1422.21 1198.99 L 1421.96 1202.26 C 1435.52 1242.01 1447.09 1262.67 1482.52 1287.19 C 1372.76 1275.85 1312.35 1228 1244.04 1147.99 C 1244.27 1149.82 1244.46 1151.66 1244.61 1153.5 C 1249.51 1221.93 1242.56 1275.03 1195.53 1328.65 C 1168.75 1359.19 1129.61 1382.95 1090.32 1393.19 C 1057.62 1401.71 1020.83 1399.98 986.887 1399.98 L 866.669 1400.01 C 846.055 1400.01 819.102 1399.2 799.104 1400.55 C 791.082 1412.54 786.167 1423.03 776.481 1434.73 C 721.472 1501.16 659.068 1526.98 576.273 1536.55 C 583.689 1527.86 592.23 1520.03 599.527 1510.71 C 626.367 1476.41 640.309 1443.89 645.284 1401.1 C 601.15 1401.99 569.138 1397 529.028 1376.01 C 478.222 1349.61 439.918 1304.19 422.474 1249.66 C 417.8 1235.11 414.91 1220.05 413.866 1204.8 C 412.665 1188.67 413.144 1169.15 413.163 1152.66 L 413.208 1071.93 L 413.159 993.34 C 413.163 971.947 412.666 949.287 415.535 928.144 C 418.71 905.516 425.79 883.611 436.461 863.406 C 466.527 807.062 511.529 778.297 570.784 760.515 L 569.466 759.498 C 574.622 757.775 580.596 757.979 585.99 756.825 C 601.928 753.414 617.742 755.871 634.059 755.823 C 685.61 755.673 737.593 755.125 788.981 757.202 C 802.879 757.764 774.645 758.097 792.357 757.728 C 794.134 754.18 791.776 738.983 792.944 731.332 L 793.904 729.992 L 794.896 729.982 L 795.163 722.808 z" fill="url(#Gradient1)" transform="translate(0,0)"></path>
<path d="M 795.163 722.808 C 796.064 673.514 824.073 613.376 859.385 579.18 C 887.425 551.902 922.458 532.902 960.615 524.278 C 988.504 518.089 1023.94 519.469 1053.12 519.454 L 1152.01 519.477 L 1333.38 519.387 C 1368.5 519.324 1404.32 519.658 1438.88 519.458 C 1540.88 518.866 1631.21 602.758 1634.47 705.367 C 1637.01 785.288 1634.06 868.524 1634.99 948.809 C 1635.61 1001.86 1610.19 1056.17 1571.46 1091.81 C 1531.14 1128.8 1477.71 1149.81 1423.01 1147.78 C 1421.55 1147.73 1420.35 1147.5 1418.93 1147.25 C 1419.39 1159.59 1419.33 1157.92 1412.06 1167.41 C 1412.1 1171.04 1411.97 1175.75 1412.6 1179.24 C 1413.1 1175.7 1412.95 1173.72 1415.4 1171.19 L 1417.77 1170.25 C 1422.6 1174.77 1419.13 1190.62 1420.55 1198.11 L 1422.21 1198.99 L 1421.96 1202.26 C 1421.71 1206.1 1421.92 1208.01 1422.25 1211.88 C 1433.73 1246.42 1440.04 1258.05 1468.22 1281.3 C 1396.41 1271 1340.95 1241.33 1288.97 1190.72 C 1272.85 1175.02 1259.47 1157.55 1244.18 1141.17 C 1242.18 1124.7 1243.38 1106.47 1242.78 1089.91 C 1241.03 1042.12 1244.34 992.934 1241.32 945.399 C 1237.22 888.57 1221.5 847.929 1178.36 810.679 C 1119.17 759.583 1069.42 762.875 996.347 763.391 L 911.34 763.608 L 846.61 763.464 C 835.509 763.417 820.769 762.882 810.104 763.735 L 809.514 763.683 L 808.36 761.549 C 808.553 757.012 806.727 736.328 805.123 733.15 L 804.782 744.392 C 802.415 743.392 800.66 742.721 798.383 741.505 C 797.436 735.565 800.625 736.705 799.502 732.65 L 797.123 733.392 L 796.9 737.206 L 796.328 737.564 L 795.296 737.041 L 794.896 729.982 L 795.163 722.808 z" fill="rgb(77,87,75)" transform="translate(0,0)"></path>
<path d="M 795.163 722.808 C 796.064 673.514 824.073 613.376 859.385 579.18 C 887.425 551.902 922.458 532.902 960.615 524.278 C 988.504 518.089 1023.94 519.469 1053.12 519.454 L 1152.01 519.477 L 1333.38 519.387 C 1368.5 519.324 1404.32 519.658 1438.88 519.458 C 1540.88 518.866 1631.21 602.758 1634.47 705.367 C 1637.01 785.288 1634.06 868.524 1634.99 948.809 C 1635.61 1001.86 1610.19 1056.17 1571.46 1091.81 C 1531.14 1128.8 1477.71 1149.81 1423.01 1147.78 C 1421.55 1147.73 1420.35 1147.5 1418.93 1147.25 L 1418.47 1145.89 C 1420.92 1144.31 1467.45 1140.83 1476.45 1138.58 C 1556.95 1118.41 1625.26 1047.49 1628.64 962.364 C 1629.2 948.115 1629.07 932.512 1629.07 917.594 L 1629.06 833.974 C 1629.02 807.983 1629.13 781.992 1629.39 756.002 C 1629.6 732.842 1630.62 700.433 1626.23 678.309 C 1620.35 648.137 1607.43 619.778 1588.52 595.537 C 1559.41 558.102 1509.49 530.215 1462.55 524.766 C 1436.96 521.797 1399.14 523 1372.64 523.044 L 1219.91 523.263 L 1065.09 523.097 C 1048.37 523.078 1030.64 523.429 1014.05 523.054 C 893.362 520.324 811.252 607.941 797.787 723.86 L 795.163 722.808 z" fill="rgb(221,217,208)" transform="translate(0,0)"></path>
<path d="M 1418.47 1145.89 L 1418.93 1147.25 C 1419.39 1159.59 1419.33 1157.92 1412.06 1167.41 C 1412.1 1171.04 1411.97 1175.75 1412.6 1179.24 C 1413.1 1175.7 1412.95 1173.72 1415.4 1171.19 L 1417.77 1170.25 C 1422.6 1174.77 1419.13 1190.62 1420.55 1198.11 L 1422.21 1198.99 L 1421.96 1202.26 C 1421.71 1206.1 1421.92 1208.01 1422.25 1211.88 L 1421.35 1212.27 C 1420.46 1210.01 1420.3 1209.2 1419.67 1206.84 L 1418.29 1207.71 C 1412.24 1202.26 1407.13 1162.77 1410.24 1153.89 C 1412.05 1148.73 1415.81 1152.27 1418.47 1145.89 z" fill="rgb(34,48,36)" transform="translate(0,0)"></path>
<path d="M 1412.6 1179.24 C 1413.1 1175.7 1412.95 1173.72 1415.4 1171.19 L 1417.77 1170.25 C 1422.6 1174.77 1419.13 1190.62 1420.55 1198.11 L 1419.6 1200.28 L 1418.46 1200.29 C 1415.11 1195.37 1413.65 1185.21 1412.6 1179.24 z" fill="rgb(24,39,35)" transform="translate(0,0)"></path>
<path d="M 795.163 722.808 L 797.787 723.86 C 797.551 726.583 797.059 730.81 797.123 733.392 L 796.9 737.206 L 796.328 737.564 L 795.296 737.041 L 794.896 729.982 L 795.163 722.808 z" fill="rgb(221,217,208)" transform="translate(0,0)"></path>
<path d="M 810.104 763.735 C 820.769 762.882 835.509 763.417 846.61 763.464 L 911.34 763.608 L 996.347 763.391 C 1069.42 762.875 1119.17 759.583 1178.36 810.679 C 1221.5 847.929 1237.22 888.57 1241.32 945.399 C 1244.34 992.934 1241.03 1042.12 1242.78 1089.91 C 1243.38 1106.47 1242.18 1124.7 1244.18 1141.17 L 1241.86 1142.96 C 1241.91 1148.06 1242.67 1151.38 1241.95 1156.53 C 1241.21 1150.2 1241.78 1144.67 1235.77 1143.31 C 1218.49 1139.39 1192.62 1140.92 1174.6 1140.93 L 1066.58 1140.89 C 986.498 1140.8 929.16 1147.41 866.308 1086.81 C 842.11 1063.29 824.765 1033.63 816.13 1001.01 C 807.868 968.791 810.397 929.431 810.16 895.815 C 809.848 851.776 811.02 807.822 810.104 763.735 z" fill="rgb(221,217,208)" transform="translate(0,0)"></path>
<path d="M 590.747 757.938 C 586.942 760.469 573.875 762.368 568.618 763.914 C 504.833 782.679 452.398 825.203 429.531 889.826 C 423.835 905.744 420.274 922.346 418.94 939.2 C 417.471 956.266 418 976.667 418.03 993.993 L 418.165 1078.61 L 418.03 1155.98 C 417.995 1177.54 417.367 1198.97 420.246 1220.39 C 423.233 1241.09 429.471 1261.19 438.728 1279.94 C 462.833 1329.83 509.888 1368.76 562.082 1386.07 C 593.428 1396.46 616.466 1398.58 648.941 1396.88 C 656.041 1403.71 652.592 1418.19 649.257 1426.15 C 641.502 1444.67 637.733 1462.56 627.473 1480.17 C 621.101 1491.1 615.89 1500.49 607.591 1510.37 C 604.34 1514.24 599.261 1520.14 602.127 1524.77 C 608.51 1527.65 620.414 1523.17 626.78 1521.14 C 636.466 1518.05 647.087 1516.84 656.403 1512.68 C 660.208 1510.98 655.781 1507.87 660.768 1505.91 C 704.631 1488.63 749.976 1463.18 775.434 1422.1 C 782.593 1410.44 779.574 1393.68 800.443 1396.42 C 808.953 1397.99 833.183 1396.78 842.903 1396.76 L 922.349 1396.61 L 999.954 1396.21 C 1029.22 1396.07 1059.86 1397.25 1088.12 1390.02 C 1120.55 1381.72 1157.74 1361.15 1181.51 1338 C 1221.49 1299.04 1242.42 1254.77 1242.5 1198.97 C 1242.52 1185.17 1241.62 1169.84 1241.95 1156.53 C 1242.67 1151.38 1241.91 1148.06 1241.86 1142.96 L 1244.18 1141.17 C 1259.47 1157.55 1272.85 1175.02 1288.97 1190.72 C 1340.95 1241.33 1396.41 1271 1468.22 1281.3 C 1440.04 1258.05 1433.73 1246.42 1422.25 1211.88 C 1421.92 1208.01 1421.71 1206.1 1421.96 1202.26 C 1435.52 1242.01 1447.09 1262.67 1482.52 1287.19 C 1372.76 1275.85 1312.35 1228 1244.04 1147.99 C 1244.27 1149.82 1244.46 1151.66 1244.61 1153.5 C 1249.51 1221.93 1242.56 1275.03 1195.53 1328.65 C 1168.75 1359.19 1129.61 1382.95 1090.32 1393.19 C 1057.62 1401.71 1020.83 1399.98 986.887 1399.98 L 866.669 1400.01 C 846.055 1400.01 819.102 1399.2 799.104 1400.55 C 791.082 1412.54 786.167 1423.03 776.481 1434.73 C 721.472 1501.16 659.068 1526.98 576.273 1536.55 C 583.689 1527.86 592.23 1520.03 599.527 1510.71 C 626.367 1476.41 640.309 1443.89 645.284 1401.1 C 601.15 1401.99 569.138 1397 529.028 1376.01 C 478.222 1349.61 439.918 1304.19 422.474 1249.66 C 417.8 1235.11 414.91 1220.05 413.866 1204.8 C 412.665 1188.67 413.144 1169.15 413.163 1152.66 L 413.208 1071.93 L 413.159 993.34 C 413.163 971.947 412.666 949.287 415.535 928.144 C 418.71 905.516 425.79 883.611 436.461 863.406 C 466.527 807.062 511.529 778.297 570.784 760.515 C 577.599 759.502 583.896 758.639 590.747 757.938 z" fill="rgb(221,217,208)" transform="translate(0,0)"></path>
<path d="M 648.941 1396.88 C 656.041 1403.71 652.592 1418.19 649.257 1426.15 C 641.502 1444.67 637.733 1462.56 627.473 1480.17 C 621.101 1491.1 615.89 1500.49 607.591 1510.37 C 604.34 1514.24 599.261 1520.14 602.127 1524.77 C 608.51 1527.65 620.414 1523.17 626.78 1521.14 C 636.466 1518.05 647.087 1516.84 656.403 1512.68 C 660.208 1510.98 655.781 1507.87 660.768 1505.91 C 704.631 1488.63 749.976 1463.18 775.434 1422.1 C 782.593 1410.44 779.574 1393.68 800.443 1396.42 C 792.241 1402.08 778.881 1426.15 771.241 1435.26 C 727.327 1487.63 657.929 1525.16 589.726 1530.22 C 618.316 1495.1 635.108 1469.23 645.714 1423.97 C 648.103 1413.78 647.462 1405.61 648.941 1396.88 z" fill="rgb(214,123,95)" transform="translate(0,0)"></path>
<path d="M 570.784 760.515 L 569.466 759.498 C 574.622 757.775 580.596 757.979 585.99 756.825 C 601.928 753.414 617.742 755.871 634.059 755.823 C 685.61 755.673 737.593 755.125 788.981 757.202 C 802.879 757.764 774.645 758.097 792.357 757.728 C 794.134 754.18 791.776 738.983 792.944 731.332 L 793.904 729.992 L 794.896 729.982 L 795.296 737.041 L 796.328 737.564 L 796.9 737.206 L 797.123 733.392 L 799.502 732.65 C 800.625 736.705 797.436 735.565 798.383 741.505 C 800.66 742.721 802.415 743.392 804.782 744.392 L 805.123 733.15 C 806.727 736.328 808.553 757.012 808.36 761.549 L 809.514 763.683 C 807.72 766.158 781.58 770.694 777.084 767.541 L 779.748 766.639 C 733.611 766.61 686.704 762.921 640.474 763.605 C 633.403 763.71 608.138 763.704 603.919 758.535 L 604.574 756.935 C 600.084 756.873 594.728 756.318 590.747 757.938 C 583.896 758.639 577.599 759.502 570.784 760.515 z" fill="rgb(104,34,29)" transform="translate(0,0)"></path>
<path d="M 570.784 760.515 L 569.466 759.498 C 574.622 757.775 580.596 757.979 585.99 756.825 C 601.928 753.414 617.742 755.871 634.059 755.823 C 685.61 755.673 737.593 755.125 788.981 757.202 C 802.879 757.764 774.645 758.097 792.357 757.728 C 794.134 754.18 791.776 738.983 792.944 731.332 L 793.904 729.992 L 794.896 729.982 L 795.296 737.041 L 796.328 737.564 L 796.9 737.206 L 797.123 733.392 L 799.502 732.65 C 800.625 736.705 797.436 735.565 798.383 741.505 C 800.66 742.721 802.415 743.392 804.782 744.392 L 805.123 733.15 C 806.727 736.328 808.553 757.012 808.36 761.549 C 779.798 757.285 754.15 758.108 725.497 757.754 C 685.191 757.225 644.883 756.952 604.574 756.935 C 600.084 756.873 594.728 756.318 590.747 757.938 C 583.896 758.639 577.599 759.502 570.784 760.515 z" fill="rgb(24,39,35)" transform="translate(0,0)"></path>
<path d="M 793.904 729.992 L 794.896 729.982 L 795.296 737.041 L 796.328 737.564 L 796.9 737.206 C 797.488 743.916 796.604 750.397 795.384 756.966 C 794.098 746.817 794.022 740.149 793.904 729.992 z" fill="rgb(150,154,160)" transform="translate(0,0)"></path>
<path d="M 959.192 1438.24 C 977.979 1437.82 1005.16 1434.69 1007.9 1460.58 C 1008.94 1470.37 1007.41 1476.06 1001.29 1483.74 C 990.816 1492.56 973.113 1490.23 959.815 1489.75 L 959.192 1438.24 z" fill="rgb(221,217,208)" transform="translate(0,0)"></path>
<path d="M 966.983 1444.35 C 975.999 1444.23 984.917 1443.74 992.899 1448.7 C 1004.89 1456.15 1002.55 1468.22 996.253 1478.75 C 986.71 1485.02 978.168 1483.51 966.98 1482.93 C 966.719 1470.22 966.925 1457.1 966.983 1444.35 z" fill="rgb(34,48,36)" transform="translate(0,0)"></path>
<path d="M 691.049 663.948 C 700.698 663.811 718.247 662.186 726.146 667.874 C 740.595 678.28 740.183 697.34 730.473 711.123 C 718.48 720.427 705.934 718.274 691.051 718.027 L 691.049 663.948 z" fill="rgb(221,217,208)" transform="translate(0,0)"></path>
<path d="M 698.198 670.997 C 707.413 670.722 715.074 669.727 722.966 675.604 C 733.464 683.421 730.949 696.411 724.337 705.824 C 716.159 712.256 708.275 710.906 698.262 710.517 L 698.198 670.997 z" fill="rgb(24,39,35)" transform="translate(0,0)"></path>
<path d="M 911.079 1438.35 C 925.448 1434.8 939.955 1443.64 943.386 1458.04 C 946.818 1472.44 937.859 1486.87 923.435 1490.19 C 909.174 1493.46 894.937 1484.63 891.545 1470.39 C 888.152 1456.16 896.873 1441.85 911.079 1438.35 z" fill="rgb(221,217,208)" transform="translate(0,0)"></path>
<path d="M 913.15 1444.17 C 940.153 1442.85 946.027 1473.15 921.925 1484.25 C 899.507 1488.03 886.948 1452.77 913.15 1444.17 z" fill="rgb(34,48,36)" transform="translate(0,0)"></path>
<path d="M 587.083 664.235 C 623.595 661.091 628.538 710.265 597.74 718.983 C 562.99 720.827 555.884 676.567 587.083 664.235 z" fill="rgb(221,217,208)" transform="translate(0,0)"></path>
<path d="M 590.409 671.124 C 617.013 672.227 616.376 706.269 595.155 712.168 C 569.761 710.409 567.619 677.079 590.409 671.124 z" fill="rgb(24,39,35)" transform="translate(0,0)"></path>
<path d="M 541.543 680.005 C 542.769 674.486 543.251 667.81 546.089 663.581 C 549.366 661.904 547.664 662.128 551.392 663.108 C 552.366 669.579 547.914 674.634 549.686 679.592 L 555.431 680.177 C 557.289 682.434 556.602 681.106 556.506 684.803 C 553.647 687.871 553.346 685.732 547.489 687.46 C 545.645 691.378 544.499 695.327 545.938 699.545 C 549.365 701.936 549.741 701.153 554.68 701.505 L 555.731 702.939 L 554.615 706.374 C 551.604 707.573 546.072 707.232 542.507 707.285 L 540.368 719.78 C 537.712 721.035 535.866 721.24 533.514 719.634 C 532.698 715.872 534.284 711.733 535.301 707.884 L 517.633 707.645 C 516.709 711.936 516.337 715.457 514.008 719.125 C 511.682 720.147 511.371 719.759 508.763 719.302 C 507.976 716.651 509.849 712.797 510.828 709.491 L 510.016 708.234 C 507.37 708.032 505.158 707.824 502.504 707.486 C 501.259 704.102 501.419 705.83 502.301 702.104 C 505 700.423 508.561 700.993 512.215 700.937 C 513.553 696.734 514.52 693.125 515.588 688.843 C 513.125 684.829 507.422 689.639 505.093 683.525 L 506.54 680.991 C 510.932 678.656 512.661 679.582 518.131 679.751 L 521.99 662.447 C 524.779 662.574 525.294 662.285 527.616 663.659 C 529.196 668.192 526.544 674.928 525.194 679.943 L 541.543 680.005 z" fill="rgb(221,217,208)" transform="translate(0,0)"></path>
<path d="M 522.867 687.059 L 539.757 687.149 L 536.543 700.913 L 519.233 700.939 L 522.867 687.059 z" fill="rgb(34,48,36)" transform="translate(0,0)"></path>
<path d="M 848.322 1439.31 C 850.93 1439.54 850.9 1439.4 853.212 1440.54 C 854.767 1444.43 853.575 1444.83 853.214 1449.82 C 861.65 1457.59 868.073 1445.59 871.109 1439.79 L 872.711 1439.43 C 874.966 1441.47 875.011 1441.25 875.617 1444.18 C 874.344 1446.63 874.004 1446.78 873.779 1449.46 C 876.76 1451.08 881.211 1452.99 881.521 1456.47 C 878.791 1458.27 865.036 1456.14 869.367 1468.53 C 872.469 1469.18 875.42 1469.33 877.589 1471.43 L 876.822 1473.15 C 873.327 1475.86 870.447 1475.26 865.871 1475.27 C 865.046 1483.03 867.758 1488.6 859.472 1490.13 C 856.074 1484.96 860.201 1482.09 858.481 1476.87 C 855.589 1474.84 851.642 1475.46 847.917 1475.54 C 846.7 1481.43 846.839 1486.89 841.051 1489.58 L 839.454 1488.23 C 838.191 1484.08 839.793 1480.06 840.866 1475.65 C 837.927 1475.4 834.996 1475.07 832.076 1474.65 C 830.305 1472.38 830.725 1473.67 831.059 1470.58 C 835.708 1467.33 838.473 1471.05 842.65 1468.1 C 843.951 1464.27 844.041 1464.44 843.683 1460.49 C 840.784 1456.76 840.259 1457.98 835.044 1455.72 C 834.561 1452.93 834.371 1454.22 835.931 1451.86 C 846.758 1451.86 846.525 1448.77 848.322 1439.31 z" fill="rgb(221,217,208)" transform="translate(0,0)"></path>
<path d="M 851.652 1457.67 C 856.089 1457.58 859.973 1456.86 863.33 1459.05 C 864.417 1462.33 863.055 1465.19 862.061 1468.67 C 858.256 1469.21 854.179 1469.77 851.038 1467.97 C 849.645 1464.77 850.905 1461.24 851.652 1457.67 z" fill="rgb(34,48,36)" transform="translate(0,0)"></path>
<path d="M 649.403 663.253 C 654.227 663.237 664.118 665.324 666.701 669.459 C 675.95 684.269 650.611 703.111 641.476 710.813 C 647.71 710.948 667.232 709.363 670.783 712.241 C 670.88 716.14 671.594 714.701 669.643 717.186 C 664.574 718.953 657.131 718.192 651.5 718.044 C 645.424 718.244 638.699 719.352 633.989 715.603 C 628.917 702.673 670.566 688.116 657.968 673.524 C 651.9 666.496 640.085 678.472 634.989 674.297 C 637.063 666.966 642.654 664.99 649.403 663.253 z" fill="rgb(221,217,208)" transform="translate(0,0)"></path>
<path d="M 1026.77 1438.03 C 1034.29 1438.12 1062.89 1436.44 1067.05 1439.91 L 1067.19 1442.58 C 1062.65 1446.48 1042.08 1445.05 1034.58 1445 L 1034.46 1464.48 L 1056.25 1464.53 L 1060.08 1464.6 C 1062.09 1466.59 1061.42 1465.48 1061.92 1468.07 L 1060.76 1469.56 C 1054.74 1471.73 1041.15 1470.88 1034.17 1470.74 C 1034.2 1474.74 1034.62 1486.81 1033.57 1489.87 C 1030.76 1491.55 1032.31 1491.13 1028.68 1490.69 C 1025.33 1486.39 1026.72 1446.42 1026.77 1438.03 z" fill="rgb(221,217,208)" transform="translate(0,0)"></path>
<path d="M 1085.21 1438.23 C 1095.89 1438.08 1114.41 1437.29 1124.15 1438.87 C 1125.68 1441.37 1125.57 1440.1 1125.06 1442.7 C 1120.39 1446.7 1099 1445.1 1091.52 1444.98 L 1091.24 1463.88 L 1118.25 1463.87 L 1120.78 1464.26 L 1122.04 1466.87 L 1121.41 1468.52 C 1116.67 1471.61 1097.68 1470.36 1091.07 1470.23 C 1091.04 1476.15 1092.71 1486.11 1089.2 1490.33 C 1086.1 1491.01 1087.5 1491.23 1084.83 1489.89 C 1083.35 1480.63 1083.9 1447.53 1085.21 1438.23 z" fill="rgb(221,217,208)" transform="translate(0,0)"></path>
<path d="M 754.97 662.81 C 758.272 662.732 759.209 662.494 762.298 663.808 C 763.44 669.014 762.742 702.811 762.686 710.412 C 768.846 710.579 774.741 708.273 779.413 712.461 L 779.534 717.071 C 772.284 718.145 762.885 717.884 755.371 717.902 C 755.369 699.537 755.236 681.173 754.97 662.81 z" fill="rgb(221,217,208)" transform="translate(0,0)"></path>
<metadata><recraft-signature>{"signed_by": "recraft", "signature_b64": "Os3RBPx8Q6qStem9h9Bezk99jciYxL7TQxctm/30M1iTFh7KsaUiC1htdBpmMbP8BX0qAPZs0h1LvGltoIKDAg==", "signing_algo": "Ed25519", "generation_timestamp": 1783089327, "identifier": "f4e69b02-a23c-4cfb-b1ad-98f3c9a7e26d"}</recraft-signature></metadata></svg>